<mxfile host="app.diagrams.net" modified="2022-10-07T12:26:00.703Z" agent="5.0 (Windows NT 10.0; Win64; x64) AppleWebKit/537.36 (KHTML, like Gecko) Chrome/106.0.0.0 Safari/537.36" etag="cwcZC2yvN35QOz7LGVL3" version="20.4.0" type="github" pages="2">
  <diagram id="r0L60IrYkGuvj0qdA61M" name="Page-1">
    <mxGraphModel dx="2297" dy="1387" grid="1" gridSize="10" guides="1" tooltips="1" connect="1" arrows="1" fold="1" page="1" pageScale="1" pageWidth="827" pageHeight="1169" background="none" math="0" shadow="0">
      <root>
        <mxCell id="0" />
        <mxCell id="1" parent="0" />
        <mxCell id="OgQMhZYKx0QEU70rx77Z-1" value="" style="strokeWidth=1;shadow=0;dashed=0;align=center;html=1;shape=mxgraph.mockup.containers.browserWindow;rSize=0;strokeColor=#666666;strokeColor2=#008cff;strokeColor3=#c4c4c4;mainText=,;recursiveResize=0;labelBackgroundColor=none;" vertex="1" parent="1">
          <mxGeometry x="50" y="70" width="1560" height="1020" as="geometry" />
        </mxCell>
        <mxCell id="OgQMhZYKx0QEU70rx77Z-2" value="Page 1" style="strokeWidth=1;shadow=0;dashed=0;align=center;html=1;shape=mxgraph.mockup.containers.anchor;fontSize=17;fontColor=#666666;align=left;" vertex="1" parent="OgQMhZYKx0QEU70rx77Z-1">
          <mxGeometry x="60" y="12" width="110" height="26" as="geometry" />
        </mxCell>
        <mxCell id="OgQMhZYKx0QEU70rx77Z-3" value="https://www.draw.io" style="strokeWidth=1;shadow=0;dashed=0;align=center;html=1;shape=mxgraph.mockup.containers.anchor;rSize=0;fontSize=17;fontColor=#666666;align=left;" vertex="1" parent="OgQMhZYKx0QEU70rx77Z-1">
          <mxGeometry x="130" y="60" width="250" height="26" as="geometry" />
        </mxCell>
        <mxCell id="OgQMhZYKx0QEU70rx77Z-5" value="&lt;h1&gt;&lt;font style=&quot;font-size: 26px;&quot;&gt;ITALIAN CUISINE&amp;nbsp;&lt;/font&gt;&lt;/h1&gt;" style="rounded=0;whiteSpace=wrap;html=1;align=center;" vertex="1" parent="OgQMhZYKx0QEU70rx77Z-1">
          <mxGeometry x="580" y="200" width="410" height="60" as="geometry" />
        </mxCell>
        <mxCell id="OgQMhZYKx0QEU70rx77Z-9" value="&lt;h3 style=&quot;&quot;&gt;&lt;ul style=&quot;font-size: 22px;&quot;&gt;&lt;li&gt;&lt;font color=&quot;#1a1a1a&quot;&gt;&lt;span style=&quot;font-weight: 400;&quot;&gt;ilForno&lt;/span&gt;&lt;/font&gt;&lt;/li&gt;&lt;/ul&gt;&lt;div style=&quot;&quot;&gt;&lt;font style=&quot;font-weight: normal; font-size: 18px;&quot; color=&quot;#0000ff&quot;&gt;&lt;span style=&quot;font-size: 18px; white-space: pre;&quot;&gt;	&lt;/span&gt;R&lt;span style=&quot;font-size: 18px;&quot;&gt;estaurant Website&lt;/span&gt;&lt;br&gt;&lt;/font&gt;&lt;/div&gt;&lt;div style=&quot;&quot;&gt;&lt;font color=&quot;#0000ff&quot;&gt;&lt;span style=&quot;font-weight: normal;&quot;&gt;&lt;span style=&quot;font-size: 18px;&quot;&gt;&lt;span style=&quot;white-space: pre;&quot;&gt;	&lt;/span&gt;&lt;/span&gt;&lt;/span&gt;&lt;/font&gt;&lt;/div&gt;&lt;div style=&quot;&quot;&gt;&lt;span style=&quot;font-size: 18px; font-weight: normal;&quot;&gt;&lt;font color=&quot;#0000ff&quot;&gt;&lt;span style=&quot;white-space: pre;&quot;&gt;	&lt;/span&gt;Restaurant location&lt;br&gt;&lt;/font&gt;&lt;/span&gt;&lt;/div&gt;&lt;div style=&quot;&quot;&gt;&lt;span style=&quot;font-size: 18px; font-weight: normal;&quot;&gt;&lt;font color=&quot;#0000ff&quot;&gt;&lt;br&gt;&lt;/font&gt;&lt;/span&gt;&lt;/div&gt;&lt;div style=&quot;&quot;&gt;&lt;span style=&quot;font-size: 18px; font-weight: normal;&quot;&gt;&lt;font color=&quot;#0000ff&quot;&gt;&lt;span style=&quot;white-space: pre;&quot;&gt;	&lt;/span&gt;Restaurant Menu&lt;/font&gt;&lt;br&gt;&lt;/span&gt;&lt;/div&gt;&lt;div style=&quot;&quot;&gt;&lt;span style=&quot;font-size: 18px; font-weight: normal;&quot;&gt;&lt;font color=&quot;#0000ff&quot;&gt;&lt;br&gt;&lt;/font&gt;&lt;/span&gt;&lt;/div&gt;&lt;div style=&quot;&quot;&gt;&lt;span style=&quot;font-size: 18px; font-weight: normal;&quot;&gt;&lt;span style=&quot;white-space: pre;&quot;&gt;	&lt;/span&gt;Contact info:&amp;nbsp;&lt;br&gt;&lt;/span&gt;&lt;/div&gt;&lt;div style=&quot;&quot;&gt;&lt;span style=&quot;font-size: 18px; font-weight: normal;&quot;&gt;&lt;br&gt;&lt;/span&gt;&lt;/div&gt;&lt;div style=&quot;&quot;&gt;&lt;span style=&quot;font-size: 18px; font-weight: normal;&quot;&gt;&lt;span style=&quot;white-space: pre;&quot;&gt;	&lt;/span&gt;&lt;br&gt;&lt;/span&gt;&lt;/div&gt;&lt;div style=&quot;&quot;&gt;&lt;span style=&quot;white-space: pre;&quot;&gt;	&lt;/span&gt;&lt;br&gt;&lt;/div&gt;&lt;/h3&gt;" style="strokeWidth=1;shadow=0;dashed=0;align=left;html=1;shape=mxgraph.mockup.text.bulletedList;textColor=#666666;mainText=,,,,;textSize=17;bulletStyle=none;align=left;verticalAlign=top;fontSize=17;labelBackgroundColor=none;labelBorderColor=none;spacingTop=0;spacing=0;spacingLeft=0;" vertex="1" parent="OgQMhZYKx0QEU70rx77Z-1">
          <mxGeometry x="580" y="339" width="400" height="290" as="geometry" />
        </mxCell>
        <mxCell id="OgQMhZYKx0QEU70rx77Z-11" value="&lt;h3 style=&quot;&quot;&gt;&lt;ul style=&quot;font-size: 22px;&quot;&gt;&lt;li&gt;&lt;span style=&quot;font-weight: normal;&quot;&gt;&lt;font color=&quot;#1a1a1a&quot;&gt;Casa Mia&lt;/font&gt;&lt;/span&gt;&lt;/li&gt;&lt;/ul&gt;&lt;div style=&quot;&quot;&gt;&lt;font style=&quot;font-weight: normal; font-size: 18px;&quot; color=&quot;#0000ff&quot;&gt;&lt;span style=&quot;font-size: 18px; white-space: pre;&quot;&gt;	&lt;/span&gt;R&lt;span style=&quot;font-size: 18px;&quot;&gt;estaurant Website&lt;/span&gt;&lt;br&gt;&lt;/font&gt;&lt;/div&gt;&lt;div style=&quot;&quot;&gt;&lt;font color=&quot;#0000ff&quot;&gt;&lt;span style=&quot;font-weight: normal;&quot;&gt;&lt;span style=&quot;font-size: 18px;&quot;&gt;&lt;span style=&quot;white-space: pre;&quot;&gt;	&lt;/span&gt;&lt;/span&gt;&lt;/span&gt;&lt;/font&gt;&lt;/div&gt;&lt;div style=&quot;&quot;&gt;&lt;span style=&quot;font-size: 18px; font-weight: normal;&quot;&gt;&lt;font color=&quot;#0000ff&quot;&gt;&lt;span style=&quot;white-space: pre;&quot;&gt;	&lt;/span&gt;Restaurant location&lt;br&gt;&lt;/font&gt;&lt;/span&gt;&lt;/div&gt;&lt;div style=&quot;&quot;&gt;&lt;span style=&quot;font-size: 18px; font-weight: normal;&quot;&gt;&lt;font color=&quot;#0000ff&quot;&gt;&lt;br&gt;&lt;/font&gt;&lt;/span&gt;&lt;/div&gt;&lt;div style=&quot;&quot;&gt;&lt;span style=&quot;font-size: 18px; font-weight: normal;&quot;&gt;&lt;font color=&quot;#0000ff&quot;&gt;&lt;span style=&quot;white-space: pre;&quot;&gt;	&lt;/span&gt;Restaurant Menu&lt;/font&gt;&lt;br&gt;&lt;/span&gt;&lt;/div&gt;&lt;div style=&quot;&quot;&gt;&lt;span style=&quot;font-size: 18px; font-weight: normal;&quot;&gt;&lt;font color=&quot;#0000ff&quot;&gt;&lt;br&gt;&lt;/font&gt;&lt;/span&gt;&lt;/div&gt;&lt;div style=&quot;&quot;&gt;&lt;span style=&quot;font-size: 18px; font-weight: normal;&quot;&gt;&lt;span style=&quot;white-space: pre;&quot;&gt;	&lt;/span&gt;Contact info:&amp;nbsp;&lt;br&gt;&lt;/span&gt;&lt;/div&gt;&lt;div style=&quot;&quot;&gt;&lt;span style=&quot;font-size: 18px; font-weight: normal;&quot;&gt;&lt;br&gt;&lt;/span&gt;&lt;/div&gt;&lt;div style=&quot;&quot;&gt;&lt;span style=&quot;font-size: 18px; font-weight: normal;&quot;&gt;&lt;span style=&quot;white-space: pre;&quot;&gt;	&lt;/span&gt;&lt;br&gt;&lt;/span&gt;&lt;/div&gt;&lt;div style=&quot;&quot;&gt;&lt;span style=&quot;white-space: pre;&quot;&gt;	&lt;/span&gt;&lt;br&gt;&lt;/div&gt;&lt;/h3&gt;" style="strokeWidth=1;shadow=0;dashed=0;align=left;html=1;shape=mxgraph.mockup.text.bulletedList;textColor=#666666;mainText=,,,,;textSize=17;bulletStyle=none;align=left;verticalAlign=top;fontSize=17;labelBackgroundColor=none;labelBorderColor=none;spacingTop=0;spacing=0;spacingLeft=0;" vertex="1" parent="OgQMhZYKx0QEU70rx77Z-1">
          <mxGeometry x="60" y="339" width="400" height="290" as="geometry" />
        </mxCell>
        <mxCell id="OgQMhZYKx0QEU70rx77Z-12" value="" style="verticalLabelPosition=bottom;shadow=0;dashed=0;align=center;html=1;verticalAlign=top;strokeWidth=1;shape=mxgraph.mockup.graphics.simpleIcon;strokeColor=#999999;labelBackgroundColor=none;labelBorderColor=none;fontSize=18;fontColor=#000000;" vertex="1" parent="OgQMhZYKx0QEU70rx77Z-1">
          <mxGeometry x="298" y="360" width="131" height="60" as="geometry" />
        </mxCell>
        <mxCell id="OgQMhZYKx0QEU70rx77Z-13" value="Restaurent logo" style="text;html=1;strokeColor=none;fillColor=none;align=center;verticalAlign=middle;whiteSpace=wrap;rounded=0;labelBackgroundColor=none;labelBorderColor=none;fontSize=18;fontColor=#000000;" vertex="1" parent="OgQMhZYKx0QEU70rx77Z-1">
          <mxGeometry x="310" y="375" width="110" height="30" as="geometry" />
        </mxCell>
        <mxCell id="OgQMhZYKx0QEU70rx77Z-14" value="" style="verticalLabelPosition=bottom;shadow=0;dashed=0;align=center;html=1;verticalAlign=top;strokeWidth=1;shape=mxgraph.mockup.graphics.simpleIcon;strokeColor=#999999;labelBackgroundColor=none;labelBorderColor=none;fontSize=18;fontColor=#000000;" vertex="1" parent="OgQMhZYKx0QEU70rx77Z-1">
          <mxGeometry x="820" y="360" width="131" height="60" as="geometry" />
        </mxCell>
        <mxCell id="OgQMhZYKx0QEU70rx77Z-15" value="Restaurent logo" style="text;html=1;strokeColor=none;fillColor=none;align=center;verticalAlign=middle;whiteSpace=wrap;rounded=0;labelBackgroundColor=none;labelBorderColor=none;fontSize=18;fontColor=#000000;" vertex="1" parent="OgQMhZYKx0QEU70rx77Z-1">
          <mxGeometry x="830.5" y="375" width="110" height="30" as="geometry" />
        </mxCell>
        <mxCell id="OgQMhZYKx0QEU70rx77Z-16" value="&lt;h3 style=&quot;&quot;&gt;&lt;ul style=&quot;font-size: 22px;&quot;&gt;&lt;li&gt;&lt;font color=&quot;#1a1a1a&quot;&gt;&lt;span style=&quot;font-weight: 400;&quot;&gt;Mura&lt;/span&gt;&lt;/font&gt;&lt;/li&gt;&lt;/ul&gt;&lt;div style=&quot;&quot;&gt;&lt;font style=&quot;font-weight: normal; font-size: 18px;&quot; color=&quot;#0000ff&quot;&gt;&lt;span style=&quot;font-size: 18px; white-space: pre;&quot;&gt;	&lt;/span&gt;R&lt;span style=&quot;font-size: 18px;&quot;&gt;estaurant Website&lt;/span&gt;&lt;br&gt;&lt;/font&gt;&lt;/div&gt;&lt;div style=&quot;&quot;&gt;&lt;font color=&quot;#0000ff&quot;&gt;&lt;span style=&quot;font-weight: normal;&quot;&gt;&lt;span style=&quot;font-size: 18px;&quot;&gt;&lt;span style=&quot;white-space: pre;&quot;&gt;	&lt;/span&gt;&lt;/span&gt;&lt;/span&gt;&lt;/font&gt;&lt;/div&gt;&lt;div style=&quot;&quot;&gt;&lt;span style=&quot;font-size: 18px; font-weight: normal;&quot;&gt;&lt;font color=&quot;#0000ff&quot;&gt;&lt;span style=&quot;white-space: pre;&quot;&gt;	&lt;/span&gt;Restaurant location&lt;br&gt;&lt;/font&gt;&lt;/span&gt;&lt;/div&gt;&lt;div style=&quot;&quot;&gt;&lt;span style=&quot;font-size: 18px; font-weight: normal;&quot;&gt;&lt;font color=&quot;#0000ff&quot;&gt;&lt;br&gt;&lt;/font&gt;&lt;/span&gt;&lt;/div&gt;&lt;div style=&quot;&quot;&gt;&lt;span style=&quot;font-size: 18px; font-weight: normal;&quot;&gt;&lt;font color=&quot;#0000ff&quot;&gt;&lt;span style=&quot;white-space: pre;&quot;&gt;	&lt;/span&gt;Restaurant Menu&lt;/font&gt;&lt;br&gt;&lt;/span&gt;&lt;/div&gt;&lt;div style=&quot;&quot;&gt;&lt;span style=&quot;font-size: 18px; font-weight: normal;&quot;&gt;&lt;font color=&quot;#0000ff&quot;&gt;&lt;br&gt;&lt;/font&gt;&lt;/span&gt;&lt;/div&gt;&lt;div style=&quot;&quot;&gt;&lt;span style=&quot;font-size: 18px; font-weight: normal;&quot;&gt;&lt;span style=&quot;white-space: pre;&quot;&gt;	&lt;/span&gt;Contact info:&amp;nbsp;&lt;br&gt;&lt;/span&gt;&lt;/div&gt;&lt;div style=&quot;&quot;&gt;&lt;span style=&quot;font-size: 18px; font-weight: normal;&quot;&gt;&lt;br&gt;&lt;/span&gt;&lt;/div&gt;&lt;div style=&quot;&quot;&gt;&lt;span style=&quot;font-size: 18px; font-weight: normal;&quot;&gt;&lt;span style=&quot;white-space: pre;&quot;&gt;	&lt;/span&gt;&lt;br&gt;&lt;/span&gt;&lt;/div&gt;&lt;div style=&quot;&quot;&gt;&lt;span style=&quot;white-space: pre;&quot;&gt;	&lt;/span&gt;&lt;br&gt;&lt;/div&gt;&lt;/h3&gt;" style="strokeWidth=1;shadow=0;dashed=0;align=left;html=1;shape=mxgraph.mockup.text.bulletedList;textColor=#666666;mainText=,,,,;textSize=17;bulletStyle=none;align=left;verticalAlign=top;fontSize=17;labelBackgroundColor=none;labelBorderColor=none;spacingTop=0;spacing=0;spacingLeft=0;" vertex="1" parent="OgQMhZYKx0QEU70rx77Z-1">
          <mxGeometry x="1090" y="339" width="400" height="290" as="geometry" />
        </mxCell>
        <mxCell id="OgQMhZYKx0QEU70rx77Z-20" value="" style="verticalLabelPosition=bottom;shadow=0;dashed=0;align=center;html=1;verticalAlign=top;strokeWidth=1;shape=mxgraph.mockup.graphics.simpleIcon;strokeColor=#999999;labelBackgroundColor=none;labelBorderColor=none;fontSize=18;fontColor=#000000;" vertex="1" parent="OgQMhZYKx0QEU70rx77Z-1">
          <mxGeometry x="1330" y="360" width="131" height="60" as="geometry" />
        </mxCell>
        <mxCell id="OgQMhZYKx0QEU70rx77Z-22" value="Restaurent logo" style="text;html=1;strokeColor=none;fillColor=none;align=center;verticalAlign=middle;whiteSpace=wrap;rounded=0;labelBackgroundColor=none;labelBorderColor=none;fontSize=18;fontColor=#000000;" vertex="1" parent="OgQMhZYKx0QEU70rx77Z-1">
          <mxGeometry x="1350" y="375" width="90" height="30" as="geometry" />
        </mxCell>
        <mxCell id="OgQMhZYKx0QEU70rx77Z-23" value="&lt;h3 style=&quot;&quot;&gt;&lt;ul style=&quot;font-size: 22px;&quot;&gt;&lt;li&gt;&lt;span style=&quot;font-weight: normal;&quot;&gt;Borro Tuscan Bistro&lt;/span&gt;&lt;/li&gt;&lt;/ul&gt;&lt;div style=&quot;&quot;&gt;&lt;font style=&quot;font-weight: normal; font-size: 18px;&quot; color=&quot;#0000ff&quot;&gt;&lt;span style=&quot;font-size: 18px; white-space: pre;&quot;&gt;	&lt;/span&gt;R&lt;span style=&quot;font-size: 18px;&quot;&gt;estaurant Website&lt;/span&gt;&lt;br&gt;&lt;/font&gt;&lt;/div&gt;&lt;div style=&quot;&quot;&gt;&lt;font color=&quot;#0000ff&quot;&gt;&lt;span style=&quot;font-weight: normal;&quot;&gt;&lt;span style=&quot;font-size: 18px;&quot;&gt;&lt;span style=&quot;white-space: pre;&quot;&gt;	&lt;/span&gt;&lt;/span&gt;&lt;/span&gt;&lt;/font&gt;&lt;/div&gt;&lt;div style=&quot;&quot;&gt;&lt;span style=&quot;font-size: 18px; font-weight: normal;&quot;&gt;&lt;font color=&quot;#0000ff&quot;&gt;&lt;span style=&quot;white-space: pre;&quot;&gt;	&lt;/span&gt;Restaurant location&lt;br&gt;&lt;/font&gt;&lt;/span&gt;&lt;/div&gt;&lt;div style=&quot;&quot;&gt;&lt;span style=&quot;font-size: 18px; font-weight: normal;&quot;&gt;&lt;font color=&quot;#0000ff&quot;&gt;&lt;br&gt;&lt;/font&gt;&lt;/span&gt;&lt;/div&gt;&lt;div style=&quot;&quot;&gt;&lt;span style=&quot;font-size: 18px; font-weight: normal;&quot;&gt;&lt;font color=&quot;#0000ff&quot;&gt;&lt;span style=&quot;white-space: pre;&quot;&gt;	&lt;/span&gt;Restaurant Menu&lt;/font&gt;&lt;br&gt;&lt;/span&gt;&lt;/div&gt;&lt;div style=&quot;&quot;&gt;&lt;span style=&quot;font-size: 18px; font-weight: normal;&quot;&gt;&lt;font color=&quot;#0000ff&quot;&gt;&lt;br&gt;&lt;/font&gt;&lt;/span&gt;&lt;/div&gt;&lt;div style=&quot;&quot;&gt;&lt;span style=&quot;font-size: 18px; font-weight: normal;&quot;&gt;&lt;span style=&quot;white-space: pre;&quot;&gt;	&lt;/span&gt;Contact info:&amp;nbsp;&lt;br&gt;&lt;/span&gt;&lt;/div&gt;&lt;div style=&quot;&quot;&gt;&lt;span style=&quot;font-size: 18px; font-weight: normal;&quot;&gt;&lt;br&gt;&lt;/span&gt;&lt;/div&gt;&lt;div style=&quot;&quot;&gt;&lt;span style=&quot;font-size: 18px; font-weight: normal;&quot;&gt;&lt;span style=&quot;white-space: pre;&quot;&gt;	&lt;/span&gt;&lt;br&gt;&lt;/span&gt;&lt;/div&gt;&lt;div style=&quot;&quot;&gt;&lt;span style=&quot;white-space: pre;&quot;&gt;	&lt;/span&gt;&lt;br&gt;&lt;/div&gt;&lt;/h3&gt;" style="strokeWidth=1;shadow=0;dashed=0;align=left;html=1;shape=mxgraph.mockup.text.bulletedList;textColor=#666666;mainText=,,,,;textSize=17;bulletStyle=none;align=left;verticalAlign=top;fontSize=17;labelBackgroundColor=none;labelBorderColor=none;spacingTop=0;spacing=0;spacingLeft=0;" vertex="1" parent="OgQMhZYKx0QEU70rx77Z-1">
          <mxGeometry x="298" y="690" width="400" height="290" as="geometry" />
        </mxCell>
        <mxCell id="OgQMhZYKx0QEU70rx77Z-52" value="&lt;h3 style=&quot;&quot;&gt;&lt;ul style=&quot;font-size: 22px;&quot;&gt;&lt;li&gt;&lt;font color=&quot;#1a1a1a&quot;&gt;&lt;span style=&quot;font-weight: 400;&quot;&gt;Scalini&lt;/span&gt;&lt;/font&gt;&lt;/li&gt;&lt;/ul&gt;&lt;div style=&quot;&quot;&gt;&lt;font style=&quot;font-weight: normal; font-size: 18px;&quot; color=&quot;#0000ff&quot;&gt;&lt;span style=&quot;font-size: 18px; white-space: pre;&quot;&gt;	&lt;/span&gt;R&lt;span style=&quot;font-size: 18px;&quot;&gt;estaurant Website&lt;/span&gt;&lt;br&gt;&lt;/font&gt;&lt;/div&gt;&lt;div style=&quot;&quot;&gt;&lt;font color=&quot;#0000ff&quot;&gt;&lt;span style=&quot;font-weight: normal;&quot;&gt;&lt;span style=&quot;font-size: 18px;&quot;&gt;&lt;span style=&quot;white-space: pre;&quot;&gt;	&lt;/span&gt;&lt;/span&gt;&lt;/span&gt;&lt;/font&gt;&lt;/div&gt;&lt;div style=&quot;&quot;&gt;&lt;span style=&quot;font-size: 18px; font-weight: normal;&quot;&gt;&lt;font color=&quot;#0000ff&quot;&gt;&lt;span style=&quot;white-space: pre;&quot;&gt;	&lt;/span&gt;Restaurant location&lt;br&gt;&lt;/font&gt;&lt;/span&gt;&lt;/div&gt;&lt;div style=&quot;&quot;&gt;&lt;span style=&quot;font-size: 18px; font-weight: normal;&quot;&gt;&lt;font color=&quot;#0000ff&quot;&gt;&lt;br&gt;&lt;/font&gt;&lt;/span&gt;&lt;/div&gt;&lt;div style=&quot;&quot;&gt;&lt;span style=&quot;font-size: 18px; font-weight: normal;&quot;&gt;&lt;font color=&quot;#0000ff&quot;&gt;&lt;span style=&quot;white-space: pre;&quot;&gt;	&lt;/span&gt;Restaurant Menu&lt;/font&gt;&lt;br&gt;&lt;/span&gt;&lt;/div&gt;&lt;div style=&quot;&quot;&gt;&lt;span style=&quot;font-size: 18px; font-weight: normal;&quot;&gt;&lt;font color=&quot;#0000ff&quot;&gt;&lt;br&gt;&lt;/font&gt;&lt;/span&gt;&lt;/div&gt;&lt;div style=&quot;&quot;&gt;&lt;span style=&quot;font-size: 18px; font-weight: normal;&quot;&gt;&lt;span style=&quot;white-space: pre;&quot;&gt;	&lt;/span&gt;Contact info:&amp;nbsp;&lt;br&gt;&lt;/span&gt;&lt;/div&gt;&lt;div style=&quot;&quot;&gt;&lt;span style=&quot;font-size: 18px; font-weight: normal;&quot;&gt;&lt;br&gt;&lt;/span&gt;&lt;/div&gt;&lt;div style=&quot;&quot;&gt;&lt;span style=&quot;font-size: 18px; font-weight: normal;&quot;&gt;&lt;span style=&quot;white-space: pre;&quot;&gt;	&lt;/span&gt;&lt;br&gt;&lt;/span&gt;&lt;/div&gt;&lt;div style=&quot;&quot;&gt;&lt;span style=&quot;white-space: pre;&quot;&gt;	&lt;/span&gt;&lt;br&gt;&lt;/div&gt;&lt;/h3&gt;" style="strokeWidth=1;shadow=0;dashed=0;align=left;html=1;shape=mxgraph.mockup.text.bulletedList;textColor=#666666;mainText=,,,,;textSize=17;bulletStyle=none;align=left;verticalAlign=top;fontSize=17;labelBackgroundColor=none;labelBorderColor=none;spacingTop=0;spacing=0;spacingLeft=0;" vertex="1" parent="OgQMhZYKx0QEU70rx77Z-1">
          <mxGeometry x="840" y="690" width="400" height="290" as="geometry" />
        </mxCell>
        <mxCell id="OgQMhZYKx0QEU70rx77Z-53" value="" style="verticalLabelPosition=bottom;shadow=0;dashed=0;align=center;html=1;verticalAlign=top;strokeWidth=1;shape=mxgraph.mockup.graphics.simpleIcon;strokeColor=#999999;labelBackgroundColor=none;labelBorderColor=none;fontSize=18;fontColor=#000000;" vertex="1" parent="OgQMhZYKx0QEU70rx77Z-1">
          <mxGeometry x="1080" y="710" width="131" height="60" as="geometry" />
        </mxCell>
        <mxCell id="OgQMhZYKx0QEU70rx77Z-54" value="" style="verticalLabelPosition=bottom;shadow=0;dashed=0;align=center;html=1;verticalAlign=top;strokeWidth=1;shape=mxgraph.mockup.graphics.simpleIcon;strokeColor=#999999;labelBackgroundColor=none;labelBorderColor=none;fontSize=18;fontColor=#000000;" vertex="1" parent="OgQMhZYKx0QEU70rx77Z-1">
          <mxGeometry x="540" y="710" width="131" height="60" as="geometry" />
        </mxCell>
        <mxCell id="OgQMhZYKx0QEU70rx77Z-55" value="Restaurent logo" style="text;html=1;strokeColor=none;fillColor=none;align=center;verticalAlign=middle;whiteSpace=wrap;rounded=0;labelBackgroundColor=none;labelBorderColor=none;fontSize=18;fontColor=#000000;" vertex="1" parent="OgQMhZYKx0QEU70rx77Z-1">
          <mxGeometry x="550.5" y="725" width="110" height="30" as="geometry" />
        </mxCell>
        <mxCell id="OgQMhZYKx0QEU70rx77Z-56" value="Restaurent logo" style="text;html=1;strokeColor=none;fillColor=none;align=center;verticalAlign=middle;whiteSpace=wrap;rounded=0;labelBackgroundColor=none;labelBorderColor=none;fontSize=18;fontColor=#000000;" vertex="1" parent="OgQMhZYKx0QEU70rx77Z-1">
          <mxGeometry x="1090.5" y="725" width="110" height="30" as="geometry" />
        </mxCell>
      </root>
    </mxGraphModel>
  </diagram>
  <diagram id="9jB8ZQfZ-9uCf6zPBKtY" name="Page-2">
    <mxGraphModel dx="2297" dy="1387" grid="1" gridSize="10" guides="1" tooltips="1" connect="1" arrows="1" fold="1" page="1" pageScale="1" pageWidth="1169" pageHeight="827" math="0" shadow="0">
      <root>
        <mxCell id="0" />
        <mxCell id="1" parent="0" />
        <mxCell id="21qF3_p2YuGQjYvuXW-O-1" value="" style="strokeWidth=1;shadow=0;dashed=0;align=center;html=1;shape=mxgraph.mockup.containers.browserWindow;rSize=0;strokeColor=#666666;strokeColor2=#008cff;strokeColor3=#c4c4c4;mainText=,;recursiveResize=0;labelBackgroundColor=none;" vertex="1" parent="1">
          <mxGeometry x="40" y="60" width="1560" height="1070" as="geometry" />
        </mxCell>
        <mxCell id="21qF3_p2YuGQjYvuXW-O-2" value="Page 1" style="strokeWidth=1;shadow=0;dashed=0;align=center;html=1;shape=mxgraph.mockup.containers.anchor;fontSize=17;fontColor=#666666;align=left;" vertex="1" parent="21qF3_p2YuGQjYvuXW-O-1">
          <mxGeometry x="60" y="12" width="110" height="26" as="geometry" />
        </mxCell>
        <mxCell id="21qF3_p2YuGQjYvuXW-O-3" value="https://www.draw.io" style="strokeWidth=1;shadow=0;dashed=0;align=center;html=1;shape=mxgraph.mockup.containers.anchor;rSize=0;fontSize=17;fontColor=#666666;align=left;" vertex="1" parent="21qF3_p2YuGQjYvuXW-O-1">
          <mxGeometry x="130" y="60" width="250" height="26" as="geometry" />
        </mxCell>
        <mxCell id="21qF3_p2YuGQjYvuXW-O-4" value="&lt;h1&gt;&lt;span style=&quot;font-size: 26px;&quot;&gt;ARABIC CUISINE&lt;/span&gt;&lt;/h1&gt;" style="rounded=0;whiteSpace=wrap;html=1;align=center;" vertex="1" parent="21qF3_p2YuGQjYvuXW-O-1">
          <mxGeometry x="580" y="200" width="410" height="60" as="geometry" />
        </mxCell>
        <mxCell id="21qF3_p2YuGQjYvuXW-O-5" value="&lt;h3 style=&quot;&quot;&gt;&lt;ul style=&quot;font-size: 22px;&quot;&gt;&lt;li&gt;&lt;font color=&quot;#1a1a1a&quot;&gt;&lt;span style=&quot;font-weight: 400;&quot;&gt;Al Safadi&lt;/span&gt;&lt;/font&gt;&lt;/li&gt;&lt;/ul&gt;&lt;div style=&quot;&quot;&gt;&lt;font style=&quot;font-weight: normal; font-size: 18px;&quot; color=&quot;#0000ff&quot;&gt;&lt;span style=&quot;font-size: 18px; white-space: pre;&quot;&gt;	&lt;/span&gt;R&lt;span style=&quot;font-size: 18px;&quot;&gt;estaurant Website&lt;/span&gt;&lt;br&gt;&lt;/font&gt;&lt;/div&gt;&lt;div style=&quot;&quot;&gt;&lt;font color=&quot;#0000ff&quot;&gt;&lt;span style=&quot;font-weight: normal;&quot;&gt;&lt;span style=&quot;font-size: 18px;&quot;&gt;&lt;span style=&quot;white-space: pre;&quot;&gt;	&lt;/span&gt;&lt;/span&gt;&lt;/span&gt;&lt;/font&gt;&lt;/div&gt;&lt;div style=&quot;&quot;&gt;&lt;span style=&quot;font-size: 18px; font-weight: normal;&quot;&gt;&lt;font color=&quot;#0000ff&quot;&gt;&lt;span style=&quot;white-space: pre;&quot;&gt;	&lt;/span&gt;Restaurant location&lt;br&gt;&lt;/font&gt;&lt;/span&gt;&lt;/div&gt;&lt;div style=&quot;&quot;&gt;&lt;span style=&quot;font-size: 18px; font-weight: normal;&quot;&gt;&lt;font color=&quot;#0000ff&quot;&gt;&lt;br&gt;&lt;/font&gt;&lt;/span&gt;&lt;/div&gt;&lt;div style=&quot;&quot;&gt;&lt;span style=&quot;font-size: 18px; font-weight: normal;&quot;&gt;&lt;font color=&quot;#0000ff&quot;&gt;&lt;span style=&quot;white-space: pre;&quot;&gt;	&lt;/span&gt;Restaurant Menu&lt;/font&gt;&lt;br&gt;&lt;/span&gt;&lt;/div&gt;&lt;div style=&quot;&quot;&gt;&lt;span style=&quot;font-size: 18px; font-weight: normal;&quot;&gt;&lt;font color=&quot;#0000ff&quot;&gt;&lt;br&gt;&lt;/font&gt;&lt;/span&gt;&lt;/div&gt;&lt;div style=&quot;&quot;&gt;&lt;span style=&quot;font-size: 18px; font-weight: normal;&quot;&gt;&lt;span style=&quot;white-space: pre;&quot;&gt;	&lt;/span&gt;Contact info:&amp;nbsp;&lt;br&gt;&lt;/span&gt;&lt;/div&gt;&lt;div style=&quot;&quot;&gt;&lt;span style=&quot;font-size: 18px; font-weight: normal;&quot;&gt;&lt;br&gt;&lt;/span&gt;&lt;/div&gt;&lt;div style=&quot;&quot;&gt;&lt;span style=&quot;font-size: 18px; font-weight: normal;&quot;&gt;&lt;span style=&quot;white-space: pre;&quot;&gt;	&lt;/span&gt;&lt;br&gt;&lt;/span&gt;&lt;/div&gt;&lt;div style=&quot;&quot;&gt;&lt;span style=&quot;white-space: pre;&quot;&gt;	&lt;/span&gt;&lt;br&gt;&lt;/div&gt;&lt;/h3&gt;" style="strokeWidth=1;shadow=0;dashed=0;align=left;html=1;shape=mxgraph.mockup.text.bulletedList;textColor=#666666;mainText=,,,,;textSize=17;bulletStyle=none;align=left;verticalAlign=top;fontSize=17;labelBackgroundColor=none;labelBorderColor=none;spacingTop=0;spacing=0;spacingLeft=0;" vertex="1" parent="21qF3_p2YuGQjYvuXW-O-1">
          <mxGeometry x="580" y="339" width="400" height="290" as="geometry" />
        </mxCell>
        <mxCell id="21qF3_p2YuGQjYvuXW-O-6" value="&lt;h3 style=&quot;&quot;&gt;&lt;ul style=&quot;font-size: 22px;&quot;&gt;&lt;li&gt;&lt;font color=&quot;#1a1a1a&quot;&gt;&lt;span style=&quot;font-weight: 400;&quot;&gt;Al Hallab&lt;/span&gt;&lt;/font&gt;&lt;/li&gt;&lt;/ul&gt;&lt;div style=&quot;&quot;&gt;&lt;font style=&quot;font-weight: normal; font-size: 18px;&quot; color=&quot;#0000ff&quot;&gt;&lt;span style=&quot;font-size: 18px; white-space: pre;&quot;&gt;	&lt;/span&gt;R&lt;span style=&quot;font-size: 18px;&quot;&gt;estaurant Website&lt;/span&gt;&lt;br&gt;&lt;/font&gt;&lt;/div&gt;&lt;div style=&quot;&quot;&gt;&lt;font color=&quot;#0000ff&quot;&gt;&lt;span style=&quot;font-weight: normal;&quot;&gt;&lt;span style=&quot;font-size: 18px;&quot;&gt;&lt;span style=&quot;white-space: pre;&quot;&gt;	&lt;/span&gt;&lt;/span&gt;&lt;/span&gt;&lt;/font&gt;&lt;/div&gt;&lt;div style=&quot;&quot;&gt;&lt;span style=&quot;font-size: 18px; font-weight: normal;&quot;&gt;&lt;font color=&quot;#0000ff&quot;&gt;&lt;span style=&quot;white-space: pre;&quot;&gt;	&lt;/span&gt;Restaurant location&lt;br&gt;&lt;/font&gt;&lt;/span&gt;&lt;/div&gt;&lt;div style=&quot;&quot;&gt;&lt;span style=&quot;font-size: 18px; font-weight: normal;&quot;&gt;&lt;font color=&quot;#0000ff&quot;&gt;&lt;br&gt;&lt;/font&gt;&lt;/span&gt;&lt;/div&gt;&lt;div style=&quot;&quot;&gt;&lt;span style=&quot;font-size: 18px; font-weight: normal;&quot;&gt;&lt;font color=&quot;#0000ff&quot;&gt;&lt;span style=&quot;white-space: pre;&quot;&gt;	&lt;/span&gt;Restaurant Menu&lt;/font&gt;&lt;br&gt;&lt;/span&gt;&lt;/div&gt;&lt;div style=&quot;&quot;&gt;&lt;span style=&quot;font-size: 18px; font-weight: normal;&quot;&gt;&lt;font color=&quot;#0000ff&quot;&gt;&lt;br&gt;&lt;/font&gt;&lt;/span&gt;&lt;/div&gt;&lt;div style=&quot;&quot;&gt;&lt;span style=&quot;font-size: 18px; font-weight: normal;&quot;&gt;&lt;span style=&quot;white-space: pre;&quot;&gt;	&lt;/span&gt;Contact info:&amp;nbsp;&lt;br&gt;&lt;/span&gt;&lt;/div&gt;&lt;div style=&quot;&quot;&gt;&lt;span style=&quot;font-size: 18px; font-weight: normal;&quot;&gt;&lt;br&gt;&lt;/span&gt;&lt;/div&gt;&lt;div style=&quot;&quot;&gt;&lt;span style=&quot;font-size: 18px; font-weight: normal;&quot;&gt;&lt;span style=&quot;white-space: pre;&quot;&gt;	&lt;/span&gt;&lt;br&gt;&lt;/span&gt;&lt;/div&gt;&lt;div style=&quot;&quot;&gt;&lt;span style=&quot;white-space: pre;&quot;&gt;	&lt;/span&gt;&lt;br&gt;&lt;/div&gt;&lt;/h3&gt;" style="strokeWidth=1;shadow=0;dashed=0;align=left;html=1;shape=mxgraph.mockup.text.bulletedList;textColor=#666666;mainText=,,,,;textSize=17;bulletStyle=none;align=left;verticalAlign=top;fontSize=17;labelBackgroundColor=none;labelBorderColor=none;spacingTop=0;spacing=0;spacingLeft=0;" vertex="1" parent="21qF3_p2YuGQjYvuXW-O-1">
          <mxGeometry x="60" y="339" width="400" height="290" as="geometry" />
        </mxCell>
        <mxCell id="21qF3_p2YuGQjYvuXW-O-7" value="" style="verticalLabelPosition=bottom;shadow=0;dashed=0;align=center;html=1;verticalAlign=top;strokeWidth=1;shape=mxgraph.mockup.graphics.simpleIcon;strokeColor=#999999;labelBackgroundColor=none;labelBorderColor=none;fontSize=18;fontColor=#000000;" vertex="1" parent="21qF3_p2YuGQjYvuXW-O-1">
          <mxGeometry x="298" y="360" width="131" height="60" as="geometry" />
        </mxCell>
        <mxCell id="21qF3_p2YuGQjYvuXW-O-8" value="Restaurent logo" style="text;html=1;strokeColor=none;fillColor=none;align=center;verticalAlign=middle;whiteSpace=wrap;rounded=0;labelBackgroundColor=none;labelBorderColor=none;fontSize=18;fontColor=#000000;" vertex="1" parent="21qF3_p2YuGQjYvuXW-O-1">
          <mxGeometry x="310" y="375" width="110" height="30" as="geometry" />
        </mxCell>
        <mxCell id="21qF3_p2YuGQjYvuXW-O-9" value="" style="verticalLabelPosition=bottom;shadow=0;dashed=0;align=center;html=1;verticalAlign=top;strokeWidth=1;shape=mxgraph.mockup.graphics.simpleIcon;strokeColor=#999999;labelBackgroundColor=none;labelBorderColor=none;fontSize=18;fontColor=#000000;" vertex="1" parent="21qF3_p2YuGQjYvuXW-O-1">
          <mxGeometry x="820" y="360" width="131" height="60" as="geometry" />
        </mxCell>
        <mxCell id="21qF3_p2YuGQjYvuXW-O-10" value="Restaurent logo" style="text;html=1;strokeColor=none;fillColor=none;align=center;verticalAlign=middle;whiteSpace=wrap;rounded=0;labelBackgroundColor=none;labelBorderColor=none;fontSize=18;fontColor=#000000;" vertex="1" parent="21qF3_p2YuGQjYvuXW-O-1">
          <mxGeometry x="830.5" y="375" width="110" height="30" as="geometry" />
        </mxCell>
        <mxCell id="21qF3_p2YuGQjYvuXW-O-11" value="&lt;h3 style=&quot;&quot;&gt;&lt;ul style=&quot;font-size: 22px;&quot;&gt;&lt;li&gt;&lt;font color=&quot;#1a1a1a&quot;&gt;&lt;span style=&quot;font-weight: 400;&quot;&gt;MAMA&#39;ESH&lt;/span&gt;&lt;/font&gt;&lt;/li&gt;&lt;/ul&gt;&lt;div style=&quot;&quot;&gt;&lt;font style=&quot;font-weight: normal; font-size: 18px;&quot; color=&quot;#0000ff&quot;&gt;&lt;span style=&quot;font-size: 18px; white-space: pre;&quot;&gt;	&lt;/span&gt;R&lt;span style=&quot;font-size: 18px;&quot;&gt;estaurant Website&lt;/span&gt;&lt;br&gt;&lt;/font&gt;&lt;/div&gt;&lt;div style=&quot;&quot;&gt;&lt;font color=&quot;#0000ff&quot;&gt;&lt;span style=&quot;font-weight: normal;&quot;&gt;&lt;span style=&quot;font-size: 18px;&quot;&gt;&lt;span style=&quot;white-space: pre;&quot;&gt;	&lt;/span&gt;&lt;/span&gt;&lt;/span&gt;&lt;/font&gt;&lt;/div&gt;&lt;div style=&quot;&quot;&gt;&lt;span style=&quot;font-size: 18px; font-weight: normal;&quot;&gt;&lt;font color=&quot;#0000ff&quot;&gt;&lt;span style=&quot;white-space: pre;&quot;&gt;	&lt;/span&gt;Restaurant location&lt;br&gt;&lt;/font&gt;&lt;/span&gt;&lt;/div&gt;&lt;div style=&quot;&quot;&gt;&lt;span style=&quot;font-size: 18px; font-weight: normal;&quot;&gt;&lt;font color=&quot;#0000ff&quot;&gt;&lt;br&gt;&lt;/font&gt;&lt;/span&gt;&lt;/div&gt;&lt;div style=&quot;&quot;&gt;&lt;span style=&quot;font-size: 18px; font-weight: normal;&quot;&gt;&lt;font color=&quot;#0000ff&quot;&gt;&lt;span style=&quot;white-space: pre;&quot;&gt;	&lt;/span&gt;Restaurant Menu&lt;/font&gt;&lt;br&gt;&lt;/span&gt;&lt;/div&gt;&lt;div style=&quot;&quot;&gt;&lt;span style=&quot;font-size: 18px; font-weight: normal;&quot;&gt;&lt;font color=&quot;#0000ff&quot;&gt;&lt;br&gt;&lt;/font&gt;&lt;/span&gt;&lt;/div&gt;&lt;div style=&quot;&quot;&gt;&lt;span style=&quot;font-size: 18px; font-weight: normal;&quot;&gt;&lt;span style=&quot;white-space: pre;&quot;&gt;	&lt;/span&gt;Contact info:&amp;nbsp;&lt;br&gt;&lt;/span&gt;&lt;/div&gt;&lt;div style=&quot;&quot;&gt;&lt;span style=&quot;font-size: 18px; font-weight: normal;&quot;&gt;&lt;br&gt;&lt;/span&gt;&lt;/div&gt;&lt;div style=&quot;&quot;&gt;&lt;span style=&quot;font-size: 18px; font-weight: normal;&quot;&gt;&lt;span style=&quot;white-space: pre;&quot;&gt;	&lt;/span&gt;&lt;br&gt;&lt;/span&gt;&lt;/div&gt;&lt;div style=&quot;&quot;&gt;&lt;span style=&quot;white-space: pre;&quot;&gt;	&lt;/span&gt;&lt;br&gt;&lt;/div&gt;&lt;/h3&gt;" style="strokeWidth=1;shadow=0;dashed=0;align=left;html=1;shape=mxgraph.mockup.text.bulletedList;textColor=#666666;mainText=,,,,;textSize=17;bulletStyle=none;align=left;verticalAlign=top;fontSize=17;labelBackgroundColor=none;labelBorderColor=none;spacingTop=0;spacing=0;spacingLeft=0;" vertex="1" parent="21qF3_p2YuGQjYvuXW-O-1">
          <mxGeometry x="1090" y="339" width="400" height="290" as="geometry" />
        </mxCell>
        <mxCell id="21qF3_p2YuGQjYvuXW-O-12" value="" style="verticalLabelPosition=bottom;shadow=0;dashed=0;align=center;html=1;verticalAlign=top;strokeWidth=1;shape=mxgraph.mockup.graphics.simpleIcon;strokeColor=#999999;labelBackgroundColor=none;labelBorderColor=none;fontSize=18;fontColor=#000000;" vertex="1" parent="21qF3_p2YuGQjYvuXW-O-1">
          <mxGeometry x="1330" y="360" width="131" height="60" as="geometry" />
        </mxCell>
        <mxCell id="21qF3_p2YuGQjYvuXW-O-13" value="Restaurent logo" style="text;html=1;strokeColor=none;fillColor=none;align=center;verticalAlign=middle;whiteSpace=wrap;rounded=0;labelBackgroundColor=none;labelBorderColor=none;fontSize=18;fontColor=#000000;" vertex="1" parent="21qF3_p2YuGQjYvuXW-O-1">
          <mxGeometry x="1350" y="375" width="90" height="30" as="geometry" />
        </mxCell>
        <mxCell id="21qF3_p2YuGQjYvuXW-O-14" value="&lt;h3 style=&quot;&quot;&gt;&lt;ul style=&quot;font-size: 22px;&quot;&gt;&lt;li&gt;&lt;span style=&quot;font-weight: 400;&quot;&gt;Jabal Lebnan&lt;/span&gt;&lt;/li&gt;&lt;/ul&gt;&lt;div style=&quot;&quot;&gt;&lt;font style=&quot;font-weight: normal; font-size: 18px;&quot; color=&quot;#0000ff&quot;&gt;&lt;span style=&quot;font-size: 18px; white-space: pre;&quot;&gt;	&lt;/span&gt;R&lt;span style=&quot;font-size: 18px;&quot;&gt;estaurant Website&lt;/span&gt;&lt;br&gt;&lt;/font&gt;&lt;/div&gt;&lt;div style=&quot;&quot;&gt;&lt;font color=&quot;#0000ff&quot;&gt;&lt;span style=&quot;font-weight: normal;&quot;&gt;&lt;span style=&quot;font-size: 18px;&quot;&gt;&lt;span style=&quot;white-space: pre;&quot;&gt;	&lt;/span&gt;&lt;/span&gt;&lt;/span&gt;&lt;/font&gt;&lt;/div&gt;&lt;div style=&quot;&quot;&gt;&lt;span style=&quot;font-size: 18px; font-weight: normal;&quot;&gt;&lt;font color=&quot;#0000ff&quot;&gt;&lt;span style=&quot;white-space: pre;&quot;&gt;	&lt;/span&gt;Restaurant location&lt;br&gt;&lt;/font&gt;&lt;/span&gt;&lt;/div&gt;&lt;div style=&quot;&quot;&gt;&lt;span style=&quot;font-size: 18px; font-weight: normal;&quot;&gt;&lt;font color=&quot;#0000ff&quot;&gt;&lt;br&gt;&lt;/font&gt;&lt;/span&gt;&lt;/div&gt;&lt;div style=&quot;&quot;&gt;&lt;span style=&quot;font-size: 18px; font-weight: normal;&quot;&gt;&lt;font color=&quot;#0000ff&quot;&gt;&lt;span style=&quot;white-space: pre;&quot;&gt;	&lt;/span&gt;Restaurant Menu&lt;/font&gt;&lt;br&gt;&lt;/span&gt;&lt;/div&gt;&lt;div style=&quot;&quot;&gt;&lt;span style=&quot;font-size: 18px; font-weight: normal;&quot;&gt;&lt;font color=&quot;#0000ff&quot;&gt;&lt;br&gt;&lt;/font&gt;&lt;/span&gt;&lt;/div&gt;&lt;div style=&quot;&quot;&gt;&lt;span style=&quot;font-size: 18px; font-weight: normal;&quot;&gt;&lt;span style=&quot;white-space: pre;&quot;&gt;	&lt;/span&gt;Contact info:&amp;nbsp;&lt;br&gt;&lt;/span&gt;&lt;/div&gt;&lt;div style=&quot;&quot;&gt;&lt;span style=&quot;font-size: 18px; font-weight: normal;&quot;&gt;&lt;br&gt;&lt;/span&gt;&lt;/div&gt;&lt;div style=&quot;&quot;&gt;&lt;span style=&quot;font-size: 18px; font-weight: normal;&quot;&gt;&lt;span style=&quot;white-space: pre;&quot;&gt;	&lt;/span&gt;&lt;br&gt;&lt;/span&gt;&lt;/div&gt;&lt;div style=&quot;&quot;&gt;&lt;span style=&quot;white-space: pre;&quot;&gt;	&lt;/span&gt;&lt;br&gt;&lt;/div&gt;&lt;/h3&gt;" style="strokeWidth=1;shadow=0;dashed=0;align=left;html=1;shape=mxgraph.mockup.text.bulletedList;textColor=#666666;mainText=,,,,;textSize=17;bulletStyle=none;align=left;verticalAlign=top;fontSize=17;labelBackgroundColor=none;labelBorderColor=none;spacingTop=0;spacing=0;spacingLeft=0;" vertex="1" parent="21qF3_p2YuGQjYvuXW-O-1">
          <mxGeometry x="298" y="690" width="400" height="290" as="geometry" />
        </mxCell>
        <mxCell id="21qF3_p2YuGQjYvuXW-O-15" value="&lt;h3 style=&quot;&quot;&gt;&lt;ul style=&quot;font-size: 22px;&quot;&gt;&lt;li&gt;&lt;font color=&quot;#1a1a1a&quot;&gt;&lt;span style=&quot;font-weight: 400;&quot;&gt;Mashro3 Tabkha&lt;/span&gt;&lt;/font&gt;&lt;/li&gt;&lt;/ul&gt;&lt;div style=&quot;&quot;&gt;&lt;font style=&quot;font-weight: normal; font-size: 18px;&quot; color=&quot;#0000ff&quot;&gt;&lt;span style=&quot;font-size: 18px; white-space: pre;&quot;&gt;	&lt;/span&gt;R&lt;span style=&quot;font-size: 18px;&quot;&gt;estaurant Website&lt;/span&gt;&lt;br&gt;&lt;/font&gt;&lt;/div&gt;&lt;div style=&quot;&quot;&gt;&lt;font color=&quot;#0000ff&quot;&gt;&lt;span style=&quot;font-weight: normal;&quot;&gt;&lt;span style=&quot;font-size: 18px;&quot;&gt;&lt;span style=&quot;white-space: pre;&quot;&gt;	&lt;/span&gt;&lt;/span&gt;&lt;/span&gt;&lt;/font&gt;&lt;/div&gt;&lt;div style=&quot;&quot;&gt;&lt;span style=&quot;font-size: 18px; font-weight: normal;&quot;&gt;&lt;font color=&quot;#0000ff&quot;&gt;&lt;span style=&quot;white-space: pre;&quot;&gt;	&lt;/span&gt;Restaurant location&lt;br&gt;&lt;/font&gt;&lt;/span&gt;&lt;/div&gt;&lt;div style=&quot;&quot;&gt;&lt;span style=&quot;font-size: 18px; font-weight: normal;&quot;&gt;&lt;font color=&quot;#0000ff&quot;&gt;&lt;br&gt;&lt;/font&gt;&lt;/span&gt;&lt;/div&gt;&lt;div style=&quot;&quot;&gt;&lt;span style=&quot;font-size: 18px; font-weight: normal;&quot;&gt;&lt;font color=&quot;#0000ff&quot;&gt;&lt;span style=&quot;white-space: pre;&quot;&gt;	&lt;/span&gt;Restaurant Menu&lt;/font&gt;&lt;br&gt;&lt;/span&gt;&lt;/div&gt;&lt;div style=&quot;&quot;&gt;&lt;span style=&quot;font-size: 18px; font-weight: normal;&quot;&gt;&lt;font color=&quot;#0000ff&quot;&gt;&lt;br&gt;&lt;/font&gt;&lt;/span&gt;&lt;/div&gt;&lt;div style=&quot;&quot;&gt;&lt;span style=&quot;font-size: 18px; font-weight: normal;&quot;&gt;&lt;span style=&quot;white-space: pre;&quot;&gt;	&lt;/span&gt;Contact info:&amp;nbsp;&lt;br&gt;&lt;/span&gt;&lt;/div&gt;&lt;div style=&quot;&quot;&gt;&lt;span style=&quot;font-size: 18px; font-weight: normal;&quot;&gt;&lt;br&gt;&lt;/span&gt;&lt;/div&gt;&lt;div style=&quot;&quot;&gt;&lt;span style=&quot;font-size: 18px; font-weight: normal;&quot;&gt;&lt;span style=&quot;white-space: pre;&quot;&gt;	&lt;/span&gt;&lt;br&gt;&lt;/span&gt;&lt;/div&gt;&lt;div style=&quot;&quot;&gt;&lt;span style=&quot;white-space: pre;&quot;&gt;	&lt;/span&gt;&lt;br&gt;&lt;/div&gt;&lt;/h3&gt;" style="strokeWidth=1;shadow=0;dashed=0;align=left;html=1;shape=mxgraph.mockup.text.bulletedList;textColor=#666666;mainText=,,,,;textSize=17;bulletStyle=none;align=left;verticalAlign=top;fontSize=17;labelBackgroundColor=none;labelBorderColor=none;spacingTop=0;spacing=0;spacingLeft=0;" vertex="1" parent="21qF3_p2YuGQjYvuXW-O-1">
          <mxGeometry x="840" y="690" width="400" height="290" as="geometry" />
        </mxCell>
        <mxCell id="21qF3_p2YuGQjYvuXW-O-16" value="" style="verticalLabelPosition=bottom;shadow=0;dashed=0;align=center;html=1;verticalAlign=top;strokeWidth=1;shape=mxgraph.mockup.graphics.simpleIcon;strokeColor=#999999;labelBackgroundColor=none;labelBorderColor=none;fontSize=18;fontColor=#000000;" vertex="1" parent="21qF3_p2YuGQjYvuXW-O-1">
          <mxGeometry x="1080" y="710" width="131" height="60" as="geometry" />
        </mxCell>
        <mxCell id="21qF3_p2YuGQjYvuXW-O-17" value="" style="verticalLabelPosition=bottom;shadow=0;dashed=0;align=center;html=1;verticalAlign=top;strokeWidth=1;shape=mxgraph.mockup.graphics.simpleIcon;strokeColor=#999999;labelBackgroundColor=none;labelBorderColor=none;fontSize=18;fontColor=#000000;" vertex="1" parent="21qF3_p2YuGQjYvuXW-O-1">
          <mxGeometry x="540" y="710" width="131" height="60" as="geometry" />
        </mxCell>
        <mxCell id="21qF3_p2YuGQjYvuXW-O-18" value="Restaurent logo" style="text;html=1;strokeColor=none;fillColor=none;align=center;verticalAlign=middle;whiteSpace=wrap;rounded=0;labelBackgroundColor=none;labelBorderColor=none;fontSize=18;fontColor=#000000;" vertex="1" parent="21qF3_p2YuGQjYvuXW-O-1">
          <mxGeometry x="550.5" y="725" width="110" height="30" as="geometry" />
        </mxCell>
        <mxCell id="21qF3_p2YuGQjYvuXW-O-19" value="Restaurent logo" style="text;html=1;strokeColor=none;fillColor=none;align=center;verticalAlign=middle;whiteSpace=wrap;rounded=0;labelBackgroundColor=none;labelBorderColor=none;fontSize=18;fontColor=#000000;" vertex="1" parent="21qF3_p2YuGQjYvuXW-O-1">
          <mxGeometry x="1090.5" y="725" width="110" height="30" as="geometry" />
        </mxCell>
      </root>
    </mxGraphModel>
  </diagram>
</mxfile>
